<?xml version="1.0" encoding="UTF-8" standalone="no"?>
<svg
   version="1.1"
   id="Layer_1"
   x="0px"
   y="0px"
   width="100%"
   viewBox="0 0 500 500"
   enable-background="new 0 0 500 500"
   xml:space="preserve"
   sodipodi:docname="hand-heart.svg"
   inkscape:version="1.2.2 (732a01da63, 2022-12-09)"
   xmlns:inkscape="http://www.inkscape.org/namespaces/inkscape"
   xmlns:sodipodi="http://sodipodi.sourceforge.net/DTD/sodipodi-0.dtd"
   xmlns="http://www.w3.org/2000/svg"
   xmlns:svg="http://www.w3.org/2000/svg"><defs
   id="defs34" /><sodipodi:namedview
   id="namedview32"
   pagecolor="#ffffff"
   bordercolor="#000000"
   borderopacity="0.25"
   inkscape:showpageshadow="2"
   inkscape:pageopacity="0.0"
   inkscape:pagecheckerboard="0"
   inkscape:deskcolor="#d1d1d1"
   showgrid="false"
   inkscape:zoom="1.05"
   inkscape:cx="219.52381"
   inkscape:cy="331.42857"
   inkscape:window-width="1366"
   inkscape:window-height="705"
   inkscape:window-x="-8"
   inkscape:window-y="-8"
   inkscape:window-maximized="1"
   inkscape:current-layer="Layer_1" />

<path
   fill="#020201"
   opacity="1.000000"
   stroke="none"
   d=" M70.468658,501.000000   C69.249527,499.370483 68.621727,497.670319 67.730171,496.122040   C54.457924,473.073212 41.061787,450.095276 27.869169,427.001068   C-6.767069,366.368927 24.846209,292.387726 92.539711,275.506012   C134.588043,265.019836 180.090851,283.648041 202.862030,321.429688   C218.732910,347.762421 233.736313,374.617950 249.134659,401.235687   C250.042908,402.805695 251.017578,404.337280 252.333710,406.498108   C256.097321,399.995331 259.609436,393.936951 263.112152,387.873169   C275.085297,367.145752 286.866364,346.304596 299.067566,325.712311   C320.910645,288.847229 353.427063,271.117432 396.235657,273.082397   C443.179291,275.237152 485.089294,315.503448 490.156647,362.227173   C492.708954,385.760773 488.073914,407.489227 476.237122,427.863281   C462.209381,452.008575 448.286133,476.214569 434.158813,500.697113   C423.312439,501.000000 412.624878,501.000000 401.393494,500.640564   C401.813293,498.537872 402.750092,496.779083 403.744598,495.053558   C420.017517,466.819336 436.724762,438.825256 452.481445,410.305969   C479.688477,361.061798 443.829315,301.307495 387.545197,302.127136   C359.907959,302.529572 338.864685,315.477814 324.969086,339.362946   C298.799805,384.345276 272.864014,429.463623 246.871597,474.548737   C241.819839,483.311310 236.952423,492.180145 232.000000,501.000000   C221.312439,501.000000 210.624878,501.000000 199.113754,500.761841   C199.157135,498.915558 199.985596,497.285248 200.896896,495.702606   C211.680115,476.975861 222.532394,458.288300 233.170486,439.479584   C234.117569,437.805084 234.618027,434.827393 233.770538,433.342987   C215.226990,400.863159 196.860306,368.270782 177.616974,336.205750   C161.913696,310.039520 130.506546,297.095215 101.429329,303.463226   C51.729652,314.347595 27.815104,367.982727 53.067104,412.235474   C69.131920,440.388214 85.478508,468.380096 101.636551,496.479858   C102.400589,497.808594 102.559357,499.485321 103.000000,501.000000   C92.312439,501.000000 81.624878,501.000000 70.468658,501.000000  z"
   id="path21" />
<path
   fill="#FEB380"
   opacity="1.000000"
   stroke="none"
   d=" M232.468658,501.000000   C236.952423,492.180145 241.819839,483.311310 246.871597,474.548737   C272.864014,429.463623 298.799805,384.345276 324.969086,339.362946   C338.864685,315.477814 359.907959,302.529572 387.545197,302.127136   C443.829315,301.307495 479.688477,361.061798 452.481445,410.305969   C436.724762,438.825256 420.017517,466.819336 403.744598,495.053558   C402.750092,496.779083 401.813293,498.537872 400.924805,500.640564   C344.979095,501.000000 288.958221,501.000000 232.468658,501.000000  z"
   id="path23" />
<path
   fill="#FEB380"
   opacity="1.000000"
   stroke="none"
   d=" M103.468658,501.000000   C102.559357,499.485321 102.400589,497.808594 101.636551,496.479858   C85.478508,468.380096 69.131920,440.388214 53.067104,412.235474   C27.815104,367.982727 51.729652,314.347595 101.429329,303.463226   C130.506546,297.095215 161.913696,310.039520 177.616974,336.205750   C196.860306,368.270782 215.226990,400.863159 233.770538,433.342987   C234.618027,434.827393 234.117569,437.805084 233.170486,439.479584   C222.532394,458.288300 211.680115,476.975861 200.896896,495.702606   C199.985596,497.285248 199.157135,498.915558 198.645096,500.761841   C167.312439,501.000000 135.624878,501.000000 103.468658,501.000000  z"
   id="path25" />
<path
   fill="#020101"
   opacity="1.000000"
   stroke="none"
   d=" M177.785919,266.217621   C151.231613,241.191254 124.489243,216.860443 98.792976,191.470886   C78.397400,171.318756 69.469841,145.960602 70.013206,117.281090   C70.909706,69.962982 108.012177,27.291464 154.804703,19.939314   C189.792252,14.441994 219.899216,24.330782 245.226837,48.971886   C247.610107,51.290565 249.802277,53.805676 253.138947,57.351608   C256.148499,53.853848 258.599121,50.489975 261.552765,47.649158   C319.039825,-7.641397 413.309326,19.125984 432.247070,96.568268   C441.374023,133.891190 431.514374,167.043594 404.139709,194.004486   C377.679901,220.064407 350.400208,245.300095 323.216125,270.613770   C302.493896,289.910248 281.359222,308.763702 260.403961,327.809845   C258.810028,329.258606 257.183960,330.672028 255.103058,332.518860   C229.359802,310.447754 203.704483,288.452057 177.785919,266.217621  M319.165009,234.660019   C340.300507,214.584641 361.434784,194.507996 382.571869,174.434311   C396.158417,161.531342 404.229858,145.802994 405.842285,127.127068   C408.504486,96.292191 391.712769,67.518265 363.856323,54.425568   C336.296417,41.472233 303.757446,47.133499 281.648529,68.822472   C273.086761,77.221581 264.676636,85.775177 256.185516,94.246422   C255.063248,95.366035 253.870010,96.414490 252.409790,97.775352   C242.397354,87.684570 232.929916,77.843010 223.133408,68.340721   C208.712509,54.352905 191.331741,47.091293 171.201187,47.785011   C140.090652,48.857109 117.406960,63.879303 105.251625,92.297897   C92.961067,121.032654 98.599251,147.683472 119.422859,170.990112   C123.636955,175.706696 127.938248,180.397079 132.617676,184.637924   C166.674454,215.502655 200.810532,246.280121 234.993362,277.005249   C241.285980,282.661346 247.905319,287.953918 254.719406,293.705963   C276.184723,274.038849 297.412506,254.589371 319.165009,234.660019  z"
   id="path27" />
<path
   fill="#FF0000"
   opacity="1.000000"
   stroke="none"
   d=" M318.902649,234.899963   C297.412506,254.589371 276.184723,274.038849 254.719406,293.705963   C247.905319,287.953918 241.285980,282.661346 234.993362,277.005249   C200.810532,246.280121 166.674454,215.502655 132.617676,184.637924   C127.938248,180.397079 123.636955,175.706696 119.422859,170.990112   C98.599251,147.683472 92.961067,121.032654 105.251625,92.297897   C117.406960,63.879303 140.090652,48.857109 171.201187,47.785011   C191.331741,47.091293 208.712509,54.352905 223.133408,68.340721   C232.929916,77.843010 242.397354,87.684570 252.409790,97.775352   C253.870010,96.414490 255.063248,95.366035 256.185516,94.246422   C264.676636,85.775177 273.086761,77.221581 281.648529,68.822472   C303.757446,47.133499 336.296417,41.472233 363.856323,54.425568   C391.712769,67.518265 408.504486,96.292191 405.842285,127.127068   C404.229858,145.802994 396.158417,161.531342 382.571869,174.434311   C361.434784,194.507996 340.300507,214.584641 318.902649,234.899963  z"
   id="path29" />
</svg>
